/* XPM */
static char *close_prelight[] = {
/* columns rows colors chars-per-pixel */
"46 29 4 1 ",
"  c #E81123",
". c #F16B76",
"X c #FAD1D5",
"o c white",
/* pixels */
"o                                             ",
"o                                             ",
"o                                             ",
"o                                             ",
"o                                             ",
"o                                             ",
"o                                             ",
"o                                             ",
"o                                             ",
"o                 X.      .X                  ",
"o                 .o.    .o.                  ",
"o                  .o.  .o.                   ",
"o                   .o..o.                    ",
"o                    .oo.                     ",
"o                    .oo.                     ",
"o                   .o..o.                    ",
"o                  .o.  .o.                   ",
"o                 .o.    .o.                  ",
"o                 X.      .X                  ",
"o                                             ",
"o                                             ",
"o                                             ",
"o                                             ",
"o                                             ",
"o                                             ",
"o                                             ",
"o                                             ",
"o                                             ",
"o                                             "
};
