/* XPM */
static char *hide_pressed[] = {
/* columns rows colors chars-per-pixel */
"47 29 3 1 ",
"  c black",
". c #CACACB",
"X c white",
/* pixels */
"XX.............................................",
"XX.............................................",
"XX.............................................",
"XX.............................................",
"XX.............................................",
"XX.............................................",
"XX.............................................",
"XX.............................................",
"XX.............................................",
"XX.............................................",
"XX.............................................",
"XX.............................................",
"XX.............................................",
"XX.............................................",
"XX..................          .................",
"XX.............................................",
"XX.............................................",
"XX.............................................",
"XX.............................................",
"XX.............................................",
"XX.............................................",
"XX.............................................",
"XX.............................................",
"XX.............................................",
"XX.............................................",
"XX.............................................",
"XX.............................................",
"XX.............................................",
"XX............................................."
};
