/* XPM */
static char *hide_prelight[] = {
/* columns rows colors chars-per-pixel */
"47 29 3 1 ",
"  c black",
". c gray90",
"X c white",
/* pixels */
"XX.............................................",
"XX.............................................",
"XX.............................................",
"XX.............................................",
"XX.............................................",
"XX.............................................",
"XX.............................................",
"XX.............................................",
"XX.............................................",
"XX.............................................",
"XX.............................................",
"XX.............................................",
"XX.............................................",
"XX.............................................",
"XX..................          .................",
"XX.............................................",
"XX.............................................",
"XX.............................................",
"XX.............................................",
"XX.............................................",
"XX.............................................",
"XX.............................................",
"XX.............................................",
"XX.............................................",
"XX.............................................",
"XX.............................................",
"XX.............................................",
"XX.............................................",
"XX............................................."
};
