/* XPM */
static char *maximize_prelight[] = {
/* columns rows colors chars-per-pixel */
"46 29 3 1 ",
"  c black",
". c gray90",
"X c white",
/* pixels */
"X.............................................",
"X.............................................",
"X.............................................",
"X.............................................",
"X.............................................",
"X.............................................",
"X.............................................",
"X.............................................",
"X.............................................",
"X.................          ..................",
"X................. ........ ..................",
"X................. ........ ..................",
"X................. ........ ..................",
"X................. ........ ..................",
"X................. ........ ..................",
"X................. ........ ..................",
"X................. ........ ..................",
"X................. ........ ..................",
"X.................          ..................",
"X.............................................",
"X.............................................",
"X.............................................",
"X.............................................",
"X.............................................",
"X.............................................",
"X.............................................",
"X.............................................",
"X.............................................",
"X............................................."
};
