/* XPM */
static char *title_5_active[] = {
/* columns rows colors chars-per-pixel */
"10 30 2 1 ",
"  c #1883D7",
". c white",
/* pixels */
"          ",
"..........",
"..........",
"..........",
"..........",
"..........",
"..........",
"..........",
"..........",
"..........",
"..........",
"..........",
"..........",
"..........",
"..........",
"..........",
"..........",
"..........",
"..........",
"..........",
"..........",
"..........",
"..........",
"..........",
"..........",
"..........",
"..........",
"..........",
"..........",
".........."
};
