/* XPM */
static char *title_4_inactive[] = {
/* columns rows colors chars-per-pixel */
"10 30 2 1 ",
"  c #AAAAAA",
". c white",
/* pixels */
"          ",
"..........",
"..........",
"..........",
"..........",
"..........",
"..........",
"..........",
"..........",
"..........",
"..........",
"..........",
"..........",
"..........",
"..........",
"..........",
"..........",
"..........",
"..........",
"..........",
"..........",
"..........",
"..........",
"..........",
"..........",
"..........",
"..........",
"..........",
"..........",
".........."
};
